<svg width="16" height="16" viewBox="0 0 16 16" fill="none" xmlns="http://www.w3.org/2000/svg">
<path d="M14.7786 11.6369C15.5281 10.8874 16 9.94353 16 8.88867C16 6.66791 13.8625 4.83578 11.0866 4.53042C10.226 2.92037 8.17181 1.78223 5.78449 1.78223C2.59214 1.78223 0.0105013 3.78091 0.0105013 6.22375C0.0105013 7.25086 0.454654 8.19468 1.23192 8.97195C0.787769 9.80474 0.177059 10.471 0.177059 10.4987C0.0105013 10.6653 -0.0450178 10.9429 0.0382608 11.1927C0.149299 11.4148 0.371375 11.5813 0.648971 11.5813C2.12023 11.5813 3.31389 10.9984 4.11891 10.4987C4.36875 10.5542 4.64635 10.582 4.89618 10.6375C5.78449 12.2198 7.81093 13.3302 10.226 13.3302C10.7812 13.3302 11.3364 13.2747 11.8638 13.1636C12.6689 13.6633 13.8625 14.2185 15.3615 14.2185C15.6114 14.2185 15.8334 14.0797 15.9445 13.8299C16.0278 13.6078 16 13.3302 15.8057 13.1359C15.8057 13.1359 15.195 12.4697 14.7786 11.6369ZM3.86908 9.05523L3.39717 9.36058C3.00853 9.63818 2.59214 9.8325 2.20351 9.97129C2.25902 9.8325 2.3423 9.6937 2.42558 9.5549L2.84198 8.69435L2.14799 8.00036C1.78711 7.63949 1.34296 7.02878 1.34296 6.22375C1.34296 4.55818 3.36941 3.11468 5.78449 3.11468C8.17181 3.11468 10.226 4.55818 10.226 6.22375C10.226 7.91709 8.17181 9.33282 5.78449 9.33282C5.31257 9.33282 4.86842 9.30506 4.42427 9.19403L3.86908 9.05523ZM13.8348 10.6653L13.1408 11.3593L13.5849 12.2198C13.6404 12.3586 13.7237 12.4974 13.807 12.6362C13.3906 12.4974 13.002 12.2753 12.6133 12.0255L12.1137 11.7201L11.5862 11.8589C11.1421 11.97 10.6702 11.9977 10.226 11.9977C8.727 11.9977 7.36678 11.4425 6.56175 10.6375C9.39323 10.3322 11.5585 8.47228 11.5585 6.22375C11.5585 6.14048 11.5307 6.0572 11.5307 5.94616C13.3073 6.36255 14.6675 7.52845 14.6675 8.88867C14.6675 9.6937 14.1956 10.3044 13.8348 10.6653Z" fill="#999999"/>
</svg>
