<svg width="16" height="16" xmlns="http://www.w3.org/2000/svg">
  <g fill="currentColor" fill-rule="evenodd">
    <path d="M10 3.293 6.707 0H2.5A1.5 1.5 0 0 0 1 1.5v8A1.5 1.5 0 0 0 2.5 11H7V6.5l.006-.088c.026-.22.24-.412.494-.412H10V3.293Zm-1 .414V5H7.5a1.5 1.5 0 0 0-1.49 1.326L6 6.47V10H2.5a.5.5 0 0 1-.5-.5v-8l.008-.09A.5.5 0 0 1 2.5 1h3.793L9 3.707Z" fill-rule="nonzero"/>
    <path d="m11 5 4 4h-2.8A1.2 1.2 0 0 1 11 7.8V5Z"/>
    <path d="M15 8.293 11.707 5H7.5A1.5 1.5 0 0 0 6 6.5v8A1.5 1.5 0 0 0 7.5 16h6a1.5 1.5 0 0 0 1.5-1.5V8.293ZM11.293 6 14 8.707V14.5a.5.5 0 0 1-.5.5h-6a.5.5 0 0 1-.5-.5v-8a.5.5 0 0 1 .5-.5h3.793Z" fill-rule="nonzero"/>
    <path d="m6 0 4 4H7.2A1.2 1.2 0 0 1 6 2.8V0Z"/>
  </g>
</svg>