<svg width="20" height="20" fill="none" xmlns="http://www.w3.org/2000/svg"><circle cx="10" cy="10" r="9.5" stroke="#262626"/><path fill-rule="evenodd" clip-rule="evenodd" d="M13.77 12.054a10.267 10.267 0 0 0 1.98-2.43S13.5 5.5 9.75 5.5a5.286 5.286 0 0 0-2.092.441l.577.578A4.478 4.478 0 0 1 9.75 6.25c1.59 0 2.91.876 3.876 1.843.465.468.883.98 1.246 1.532-.044.065-.092.137-.147.216-.251.36-.622.84-1.1 1.317a7.904 7.904 0 0 1-.386.364l.53.532Z" fill="#262626"/><path fill-rule="evenodd" clip-rule="evenodd" d="m10.016 11.482.616.616a2.624 2.624 0 0 1-3.355-3.355l.617.617a1.875 1.875 0 0 0 2.122 2.122Zm2.207-.975a2.625 2.625 0 0 0-3.355-3.355l.617.617a1.876 1.876 0 0 1 2.122 2.122l.616.616Z" fill="#262626"/><path fill-rule="evenodd" clip-rule="evenodd" d="M6.263 7.728a9.09 9.09 0 0 0-.389.365 9.903 9.903 0 0 0-1.245 1.532l.147.216c.251.36.622.84 1.098 1.317C6.841 12.124 8.161 13 9.75 13c.537 0 1.043-.1 1.515-.27l.578.579a5.253 5.253 0 0 1-2.093.44c-3.75 0-6-4.124-6-4.124s.704-1.291 1.981-2.428l.531.53h.001Z" fill="#262626"/><path fill-rule="evenodd" clip-rule="evenodd" d="M4.63 9.625c.362.551.78 1.064 1.245 1.532C6.84 12.124 8.16 13 9.75 13c1.59 0 2.91-.876 3.876-1.843a9.846 9.846 0 0 0 1.245-1.532 9.845 9.845 0 0 0-1.245-1.532C12.66 7.126 11.34 6.25 9.75 6.25c-1.59 0-2.909.876-3.876 1.843A9.904 9.904 0 0 0 4.63 9.625h.001Zm11.12 0S13.5 5.5 9.75 5.5s-6 4.125-6 4.125 2.25 4.125 6 4.125 6-4.125 6-4.125Z" fill="#262626"/><path fill-rule="evenodd" clip-rule="evenodd" d="M7.125 9.625a2.625 2.625 0 1 1 5.25 0 2.625 2.625 0 0 1-5.25 0M9.75 7.75A1.874 1.874 0 1 0 9.75 11.5 1.874 1.874 0 0 0 9.75 7.75" fill="#262626"/></svg>